<svg width="44" height="44" viewBox="0 0 44 44" fill="none" xmlns="http://www.w3.org/2000/svg">
<rect width="44" height="44" rx="8" fill="#F6F6F6"/>
<path d="M30.6848 28.9375L27.1691 20.4219C27.1042 20.2646 26.9941 20.1302 26.8527 20.0356C26.7112 19.941 26.5449 19.8905 26.3748 19.8905C26.2047 19.8905 26.0384 19.941 25.897 20.0356C25.7555 20.1302 25.6454 20.2646 25.5805 20.4219L22.0648 28.9375C22.0211 29.0419 21.9985 29.154 21.9982 29.2672C21.9979 29.3804 22.02 29.4925 22.0632 29.5972C22.1064 29.7018 22.1698 29.7969 22.2499 29.877C22.3299 29.957 22.425 30.0205 22.5296 30.0637C22.6343 30.1069 22.7464 30.129 22.8596 30.1287C22.9728 30.1284 23.0849 30.1058 23.1893 30.0621C23.2938 30.0184 23.3885 29.9545 23.4682 29.874C23.5478 29.7936 23.6108 29.6982 23.6535 29.5934L24.3695 27.8594H28.3801L29.0961 29.5934C29.161 29.7507 29.2712 29.8852 29.4126 29.9799C29.5541 30.0745 29.7204 30.125 29.8906 30.125C30.0318 30.1249 30.1709 30.09 30.2954 30.0234C30.4199 29.9568 30.5261 29.8606 30.6046 29.7432C30.683 29.6258 30.7314 29.4909 30.7453 29.3503C30.7592 29.2098 30.7383 29.068 30.6844 28.9375H30.6848ZM25.0793 26.1406L26.375 23.002L27.6707 26.1406H25.0793ZM22.4625 25.3953C22.596 25.2109 22.6509 24.981 22.6151 24.7562C22.5793 24.5313 22.4557 24.3299 22.2715 24.1961C22.2637 24.1902 21.6855 23.7613 20.8461 22.8395C22.3949 20.7426 23.2723 18.357 23.6301 17.2344H24.8906C25.1185 17.2344 25.3371 17.1438 25.4983 16.9827C25.6595 16.8215 25.75 16.6029 25.75 16.375C25.75 16.1471 25.6595 15.9285 25.4983 15.7673C25.3371 15.6062 25.1185 15.5156 24.8906 15.5156H20.3594V14.7344C20.3594 14.5065 20.2688 14.2879 20.1077 14.1267C19.9465 13.9655 19.7279 13.875 19.5 13.875C19.2721 13.875 19.0535 13.9655 18.8923 14.1267C18.7312 14.2879 18.6406 14.5065 18.6406 14.7344V15.5156H14.1094C13.8815 15.5156 13.6629 15.6062 13.5017 15.7673C13.3405 15.9285 13.25 16.1471 13.25 16.375C13.25 16.6029 13.3405 16.8215 13.5017 16.9827C13.6629 17.1438 13.8815 17.2344 14.1094 17.2344H21.8145C21.4426 18.2871 20.7578 19.9492 19.7133 21.4672C18.4863 19.8391 18.0305 18.7855 18.027 18.777C17.9371 18.5694 17.7691 18.4056 17.5593 18.3211C17.3495 18.2366 17.1148 18.2382 16.9062 18.3256C16.6976 18.413 16.5318 18.5791 16.4449 18.7879C16.358 18.9967 16.3568 19.2314 16.4418 19.441C16.4645 19.4949 17.0102 20.7781 18.5066 22.7195C18.5426 22.766 18.5781 22.8113 18.6137 22.8566C17.0809 24.5891 15.577 25.6637 14.9477 26.0105C14.7476 26.1197 14.599 26.3039 14.5347 26.5225C14.4704 26.7412 14.4955 26.9765 14.6047 27.1766C14.7138 27.3767 14.898 27.5252 15.1167 27.5895C15.3353 27.6539 15.5706 27.6287 15.7707 27.5195C15.8551 27.4734 17.6691 26.4691 19.7406 24.1762C20.6203 25.1168 21.225 25.5605 21.2613 25.5863C21.3527 25.6527 21.4563 25.7004 21.5662 25.7268C21.6761 25.7531 21.79 25.7575 21.9016 25.7397C22.0132 25.7219 22.1201 25.6823 22.2164 25.6231C22.3126 25.564 22.3963 25.4864 22.4625 25.3949V25.3953Z" fill="#807D7E"/>
</svg>
